<svg width="17" height="17" viewBox="0 0 17 17" fill="none" xmlns="http://www.w3.org/2000/svg">
<path d="M14.3438 7.96879H3.74558L7.8038 4.10341C8.0163 3.90101 8.02453 3.56473 7.82212 3.35223C7.61998 3.13999 7.2837 3.13149 7.07094 3.3339L2.43631 7.74858C2.23577 7.9494 2.125 8.21608 2.125 8.50004C2.125 8.78373 2.23577 9.05068 2.44561 9.26026L7.0712 13.6659C7.174 13.7639 7.30575 13.8125 7.4375 13.8125C7.57775 13.8125 7.718 13.7573 7.82239 13.6476C8.0248 13.4351 8.01656 13.0991 7.80406 12.8967L3.72884 9.03129H14.3438C14.637 9.03129 14.875 8.79329 14.875 8.50004C14.875 8.20679 14.637 7.96879 14.3438 7.96879Z" fill="#C7051A"/>
</svg>
