<svg width="24" height="24" viewBox="0 0 24 24" fill="none" xmlns="http://www.w3.org/2000/svg">
<g clip-path="url(#clip0_1_72)">
<path d="M0.569885 9.75197L2.81792 21.9103C3.03118 23.1103 4.06883 23.9883 5.28757 24H18.7124C19.9312 23.9883 20.9688 23.1103 21.182 21.9103L23.4301 9.75197H0.569885ZM7.88389 15.1979C7.88389 15.5477 7.60039 15.8312 7.25065 15.8312C6.9009 15.8312 6.6174 15.5477 6.6174 15.1979V13.2982C6.6174 12.9484 6.9009 12.6649 7.25065 12.6649C7.60039 12.6649 7.88389 12.9484 7.88389 13.2982V15.1979ZM17.3826 15.1979C17.3826 15.5477 17.0991 15.8312 16.7494 15.8312C16.3996 15.8312 16.1161 15.5477 16.1161 15.1979V13.2982C16.1161 12.9484 16.3996 12.6649 16.7494 12.6649C17.0991 12.6649 17.3826 12.9484 17.3826 13.2982V15.1979Z" fill="white"/>
<path d="M7.88392 5.38257C7.88392 3.10933 9.72676 1.26649 12 1.26649C14.2732 1.26649 16.1161 3.10933 16.1161 5.38257V9.11872H17.3826V5.38257C17.3826 2.40984 14.9727 0 12 0C9.02727 0 6.61743 2.40984 6.61743 5.38257V9.11872H7.88392V5.38257Z" fill="white"/>
</g>
<defs>
<clipPath id="clip0_1_72">
<rect width="24" height="24" fill="white"/>
</clipPath>
</defs>
</svg>
