<svg width="24" height="24" viewBox="0 0 24 24" fill="none" xmlns="http://www.w3.org/2000/svg">
<g clip-path="url(#clip0_1_86)">
<path d="M22.4087 23.2111L20.5847 5.8405C20.5464 5.47686 20.2399 5.20073 19.8742 5.20073H16.4457V4.41906C16.4457 1.98248 14.4633 0 12.0267 0C9.58992 0 7.60744 1.98248 7.60744 4.41906V5.20073H4.17898C3.81332 5.20073 3.5068 5.47686 3.46853 5.8405L1.64444 23.2111C1.62339 23.4124 1.68875 23.6132 1.82407 23.7637C1.95957 23.9141 2.15256 23.9999 2.35489 23.9999H21.6981C21.9006 23.9999 22.0936 23.9141 22.2289 23.7637C22.3646 23.6132 22.4298 23.4124 22.4087 23.2111ZM9.03603 4.41906C9.03603 2.7702 10.3776 1.42859 12.0267 1.42859C13.6755 1.42859 15.0172 2.7702 15.0172 4.41906V5.20073H9.03603V4.41906ZM3.1481 22.5714L4.82223 6.62932H7.60744V8.20347C7.60744 8.59788 7.92733 8.91777 8.32174 8.91777C8.71614 8.91777 9.03603 8.59788 9.03603 8.20347V6.62932H15.0172V8.20347C15.0172 8.59788 15.337 8.91777 15.7314 8.91777C16.1259 8.91777 16.4457 8.59788 16.4457 8.20347V6.62932H19.231L20.9051 22.5714H3.1481Z" fill="#C7051A"/>
</g>
<defs>
<clipPath id="clip0_1_86">
<rect width="24" height="24" fill="white"/>
</clipPath>
</defs>
</svg>
