<svg width="24" height="24" viewBox="0 0 24 24" fill="none" xmlns="http://www.w3.org/2000/svg">
<g clip-path="url(#clip0_1_65)">
<path d="M10.664 12.46H10.6289V11.1626C10.6289 10.8369 10.3645 10.5719 10.0395 10.5719H9.55669V3.74714C9.55669 3.74578 9.5565 3.74447 9.5565 3.74311C9.56194 3.52584 9.53035 3.29058 9.45956 3.04177C9.2836 2.42297 8.88277 1.7783 8.331 1.22648C7.56291 0.458391 6.64111 0 5.86472 0C5.86435 0 5.86392 0 5.86364 0C5.45447 0.000234375 5.10717 0.131578 4.85916 0.379828C4.61025 0.628219 4.47863 0.976219 4.47853 1.38623C4.47853 1.40578 4.479 1.42552 4.47961 1.4453L4.48472 10.572H3.99675C3.67177 10.572 3.40739 10.8369 3.40739 11.1627V12.4601H3.37097C2.65697 12.4601 2.07605 13.0416 2.07605 13.7563C2.07605 14.3485 2.47575 14.8487 3.01941 15.0023V23.3947C3.01941 23.7285 3.26532 24 3.56761 24H10.4687C10.7703 24 11.0156 23.7285 11.0156 23.3947V15.0024C11.56 14.8489 11.9603 14.3486 11.9603 13.7563C11.9602 13.0415 11.3787 12.46 10.664 12.46ZM5.35585 0.877594C5.35603 0.877359 5.35622 0.877172 5.35641 0.876984C5.47139 0.761766 5.64221 0.703266 5.86402 0.703125H5.86472C6.441 0.703125 7.21378 1.10367 7.8338 1.72369C8.8133 2.70319 9.066 3.81562 8.68017 4.20141C8.49253 4.38919 8.13975 4.42706 7.71244 4.30552C7.20741 4.16189 6.67121 3.82434 6.20232 3.35489C5.58221 2.73548 5.18157 1.9628 5.18171 1.38633C5.18171 1.164 5.2403 0.992813 5.35585 0.877594ZM8.85357 4.93125V10.5719H5.18785L5.18377 3.24445C5.33616 3.45366 5.51067 3.65784 5.70516 3.85205C6.25702 4.40466 6.90155 4.80586 7.52006 4.98183C7.75055 5.04741 7.96964 5.07984 8.17346 5.07984C8.42635 5.07984 8.65561 5.02983 8.85357 4.93125ZM4.11047 11.275H4.83642H4.83661H9.92574V12.46H4.11047V11.275ZM3.72249 23.2969V21.3532H10.3124V23.2969H3.72249ZM10.664 14.3481H7.66786C7.47366 14.3481 7.3163 14.5054 7.3163 14.6996C7.3163 14.8938 7.47366 15.0512 7.66786 15.0512H10.3124V20.6501H3.72249V15.0512H6.22753C6.42174 15.0512 6.5791 14.8938 6.5791 14.6996C6.5791 14.5054 6.42174 14.3481 6.22753 14.3481H3.37092C3.04458 14.3481 2.77913 14.0826 2.77913 13.7563C2.77913 13.4292 3.04458 13.1632 3.37092 13.1632H3.75891H10.2773H10.664C10.991 13.1632 11.2571 13.4292 11.2571 13.7563C11.2571 14.0826 10.991 14.3481 10.664 14.3481Z" fill="#060608" fill-opacity="0.5"/>
<path d="M19.5049 8.94825H16.348C15.0135 8.94825 13.9277 10.0334 13.9277 11.3672V13.7815V15.8768V23.4132C13.9277 23.7367 14.1909 24 14.5145 24H21.3385C21.6613 24 21.9239 23.7368 21.9239 23.4132V20.1712C21.9239 19.977 21.7665 19.8196 21.5723 19.8196C21.3781 19.8196 21.2208 19.977 21.2208 20.1712V23.2969H14.6309V16.2284H21.2208V18.5475C21.2208 18.7417 21.3782 18.8991 21.5724 18.8991C21.7666 18.8991 21.924 18.7417 21.924 18.5475V15.8768V13.7815V11.3672C21.924 10.0334 20.8388 8.94825 19.5049 8.94825ZM16.3481 9.65137H19.505C20.4511 9.65137 21.2208 10.4211 21.2208 11.3672V13.43H14.6309V11.3672C14.6309 10.4211 15.4013 9.65137 16.3481 9.65137ZM14.6309 15.5253V14.1331H21.2208V15.5253H14.6309Z" fill="#060608" fill-opacity="0.5"/>
</g>
<defs>
<clipPath id="clip0_1_65">
<rect width="24" height="24" fill="white"/>
</clipPath>
</defs>
</svg>
