<svg width="24" height="24" viewBox="0 0 24 24" fill="none" xmlns="http://www.w3.org/2000/svg">
<path d="M19.1884 23.5902C19.1864 23.5679 18.9783 21.3278 18.3291 18.4314C17.2609 13.6658 15.8216 10.729 14.7808 9.08456V7.63359L15.9737 2.46445C15.9858 2.41195 15.9861 2.35809 15.9757 2.30634L15.976 2.3063L15.5752 0.302109C15.5401 0.126422 15.3858 0 15.2067 0H14.0042C13.7967 0 13.6284 0.168234 13.6284 0.375797V2.29612C13.0757 2.53308 12.4977 2.93841 12.0161 3.62334C12.0125 3.6285 12.0004 3.62855 12 3.62855C11.9994 3.62855 11.9874 3.6285 11.9838 3.62334C11.5022 2.93841 10.9243 2.53312 10.3716 2.29617V0.375797C10.3716 0.168281 10.2034 0 9.99582 0H8.79339C8.61428 0 8.46006 0.126422 8.4249 0.302062L8.02403 2.30625L8.02426 2.3063C8.0139 2.35805 8.01418 2.41191 8.02632 2.46441L9.2192 7.63359L9.21925 9.08452C8.17834 10.729 6.73909 13.6658 5.6709 18.4313C5.02168 21.3278 4.81361 23.5679 4.81154 23.5902C4.80198 23.6954 4.83709 23.7996 4.90829 23.8776C4.9795 23.9556 5.08018 24 5.18579 24H18.8142C18.9198 24 19.0205 23.9556 19.0917 23.8776C19.1629 23.7997 19.198 23.6954 19.1884 23.5902ZM14.3799 0.751547H14.8986L15.144 1.97855C14.9325 1.98169 14.6701 2.00231 14.3799 2.0617V0.751547H14.3799ZM9.1014 0.751547H9.62003V2.06175C9.32992 2.00231 9.06746 1.98169 8.85601 1.97859L9.1014 0.751547ZM8.85915 2.73112C9.45418 2.74444 10.5794 2.93273 11.3689 4.05562C11.5118 4.25878 11.7477 4.38009 12 4.38009C12.2522 4.38009 12.4881 4.25878 12.6309 4.05562C13.4259 2.92505 14.5471 2.7397 15.1413 2.72902L14.1061 7.215H9.89392L8.85915 2.73112ZM14.0293 7.96659V8.81836H9.97084V7.96659H14.0293ZM5.60457 23.2485C5.81261 21.4771 6.80767 14.3605 9.80218 9.56995H10.3594L9.62434 14.3479C9.59279 14.553 9.73347 14.7449 9.93859 14.7765C9.958 14.7794 9.97722 14.7809 9.9962 14.7809C10.1785 14.7809 10.3386 14.6479 10.3671 14.4622L11.1198 9.56995H11.6242V17.2109C11.6242 17.4184 11.7924 17.5867 12 17.5867C12.2075 17.5867 12.3758 17.4184 12.3758 17.2109V9.56995H12.8801L13.6327 14.4622C13.6613 14.648 13.8213 14.7809 14.0036 14.7809C14.0226 14.7809 14.0419 14.7794 14.0612 14.7765C14.2664 14.7449 14.4071 14.553 14.3755 14.3479L13.6404 9.56995H14.1977C17.1904 14.3577 18.1869 21.4766 18.3953 23.2485H5.60457Z" fill="#060608" fill-opacity="0.5"/>
</svg>
