<svg width="24" height="24" viewBox="0 0 24 24" fill="none" xmlns="http://www.w3.org/2000/svg">
<g clip-path="url(#clip0_1_49)">
<path d="M23.9454 4.16738C23.9454 2.96208 23.1139 1.94766 21.9945 1.66678V0.703125C21.9945 0.314812 21.6797 0 21.2914 0C20.9031 0 20.5882 0.314812 20.5882 0.703125V1.70986C19.5463 2.04089 18.7891 3.01725 18.7891 4.16742C18.7891 4.75683 18.9884 5.3003 19.3225 5.73506C18.6385 6.19912 18.1881 6.98287 18.1881 7.86994C18.1881 8.09091 18.2162 8.30545 18.2687 8.51025C17.2079 8.71669 16.3773 9.57516 16.2133 10.6503C16.0397 10.6133 15.8597 10.5934 15.6752 10.5934C14.7508 10.5934 13.9389 11.0827 13.4838 11.8155C13.0638 11.5188 12.552 11.3438 11.9999 11.3438C11.4478 11.3438 10.9361 11.5188 10.5162 11.8155C10.0611 11.0826 9.24913 10.5933 8.3248 10.5933C8.14025 10.5933 7.9603 10.6132 7.78658 10.6503C7.62266 9.57506 6.79204 8.71659 5.73121 8.5102C5.78375 8.30541 5.81179 8.09086 5.81179 7.86989C5.81179 6.98288 5.36146 6.19912 4.67746 5.73502C5.01154 5.30025 5.2108 4.75678 5.2108 4.16738C5.2108 3.01725 4.45363 2.04089 3.41169 1.70981V0.703125C3.41169 0.314812 3.09688 0 2.70857 0C2.32025 0 2.00544 0.314812 2.00544 0.703125V1.66678C0.88602 1.9477 0.0545044 2.96213 0.0545044 4.16738C0.0545044 5.05439 0.504833 5.83814 1.18883 6.30225C0.854754 6.73702 0.655489 7.28048 0.655489 7.86989C0.655489 9.12277 1.55399 10.1693 2.7404 10.4002C2.68785 10.605 2.65982 10.8195 2.65982 11.0405C2.65982 12.462 3.81636 13.6186 5.23794 13.6186C5.42249 13.6186 5.60244 13.5987 5.77616 13.5616C5.96479 14.7988 7.03579 15.7496 8.32475 15.7496C8.87685 15.7496 9.38858 15.5745 9.80849 15.2779C10.1436 15.8175 10.6723 16.2244 11.2968 16.4017V17.929C10.6273 17.8354 9.92474 18.0466 9.41263 18.5574C8.99221 18.9775 8.76069 19.5362 8.76069 20.1307C8.76069 20.7252 8.99221 21.2839 9.41244 21.7037L11.5027 23.7941C11.6346 23.9259 11.8134 24 11.9999 24C12.1865 24 12.3653 23.9259 12.4971 23.794L14.5873 21.7039C15.0077 21.2838 15.2392 20.7251 15.2392 20.1307C15.2392 19.5362 15.0077 18.9775 14.5872 18.5574C14.0752 18.0459 13.3726 17.8343 12.7031 17.9282V16.4017C13.3276 16.2244 13.8562 15.8175 14.1913 15.2779C14.6113 15.5745 15.123 15.7496 15.6751 15.7496C16.9641 15.7496 18.0351 14.7987 18.2237 13.5616C18.3973 13.5987 18.5773 13.6185 18.7618 13.6185C20.1834 13.6185 21.34 12.462 21.34 11.0405C21.34 10.8215 21.3126 10.6068 21.2601 10.4C22.4461 10.1689 23.3443 9.12253 23.3443 7.86984C23.3443 7.28044 23.1451 6.73697 22.811 6.3022C23.4951 5.83819 23.9454 5.05444 23.9454 4.16738ZM21.3673 2.9955C22.0134 2.9955 22.5391 3.5212 22.5391 4.16738C22.5391 4.81355 22.0134 5.33925 21.3673 5.33925C20.7211 5.33925 20.1954 4.81355 20.1954 4.16738C20.1954 3.5212 20.7211 2.9955 21.3673 2.9955ZM2.63263 2.9955C3.2788 2.9955 3.8045 3.5212 3.8045 4.16738C3.8045 4.81355 3.2788 5.33925 2.63263 5.33925C1.98646 5.33925 1.46075 4.81355 1.46075 4.16738C1.46075 3.5212 1.98646 2.9955 2.63263 2.9955ZM2.06174 7.86989C2.06174 7.22372 2.58744 6.69802 3.23361 6.69802C3.87979 6.69802 4.40549 7.22372 4.40549 7.86989C4.40549 8.51606 3.87979 9.04177 3.23361 9.04177C2.58744 9.04177 2.06174 8.51606 2.06174 7.86989ZM4.06611 11.0404C4.06611 10.3942 4.59182 9.86855 5.23799 9.86855C5.88416 9.86855 6.40986 10.3942 6.40986 11.0404C6.40986 11.6866 5.88416 12.2123 5.23799 12.2123C4.59182 12.2123 4.06611 11.6866 4.06611 11.0404ZM8.3248 14.3433C7.67863 14.3433 7.15293 13.8176 7.15293 13.1715C7.15293 12.5253 7.67863 11.9996 8.3248 11.9996C8.97097 11.9996 9.49668 12.5253 9.49668 13.1715C9.49668 13.8176 8.97097 14.3433 8.3248 14.3433ZM13.5933 19.5522C13.7478 19.7066 13.8329 19.9121 13.8329 20.1307C13.8329 20.3493 13.7478 20.5547 13.5931 20.7094L11.9999 22.3025L10.4066 20.7091C10.2521 20.5547 10.167 20.3493 10.167 20.1307C10.167 19.9121 10.2521 19.7066 10.4062 19.5526C10.566 19.3933 10.7761 19.3128 10.9865 19.3128C11.1811 19.3128 11.376 19.3817 11.5314 19.5206C11.7984 19.7593 12.2021 19.7591 12.469 19.5202C12.7919 19.2309 13.2859 19.245 13.5933 19.5522ZM11.9999 15.0938C11.3538 15.0938 10.8281 14.568 10.8281 13.9219C10.8281 13.2757 11.3538 12.75 11.9999 12.75C12.6461 12.75 13.1718 13.2757 13.1718 13.9219C13.1718 14.568 12.6461 15.0938 11.9999 15.0938ZM15.6751 14.3433C15.0289 14.3433 14.5032 13.8176 14.5032 13.1715C14.5032 12.5253 15.0289 11.9996 15.6751 11.9996C16.3213 11.9996 16.847 12.5253 16.847 13.1715C16.847 13.8176 16.3213 14.3433 15.6751 14.3433ZM19.9338 11.0404C19.9338 11.6866 19.4081 12.2123 18.7619 12.2123C18.1157 12.2123 17.59 11.6866 17.59 11.0405C17.5901 10.3942 18.1158 9.86855 18.7619 9.86855C19.075 9.86855 19.3692 9.99047 19.5906 10.2118C19.8119 10.4331 19.9338 10.7274 19.9338 11.0404ZM20.7663 9.04177C20.1201 9.04177 19.5944 8.51606 19.5944 7.86989C19.5944 7.22372 20.1201 6.69802 20.7663 6.69802C21.4124 6.69802 21.9381 7.22372 21.9381 7.86989C21.9381 8.51606 21.4124 9.04177 20.7663 9.04177Z" fill="#060608" fill-opacity="0.5"/>
</g>
<defs>
<clipPath id="clip0_1_49">
<rect width="24" height="24" fill="white"/>
</clipPath>
</defs>
</svg>
