<svg width="24" height="24" viewBox="0 0 24 24" fill="none" xmlns="http://www.w3.org/2000/svg">
<path d="M14.168 2.11171C14.1619 2.08171 14.153 2.05218 14.1413 2.02406C14.1296 1.99546 14.1151 1.96828 14.0982 1.94296C14.0808 1.91718 14.0616 1.89328 14.0396 1.87171C14.018 1.85015 13.9941 1.83046 13.9683 1.81359C13.943 1.79671 13.9158 1.78218 13.8877 1.77046C13.8596 1.75874 13.8301 1.74937 13.8 1.74374C13.7395 1.73156 13.6773 1.73156 13.6168 1.74374C13.5867 1.74937 13.5573 1.75874 13.5291 1.77046C13.501 1.78218 13.4738 1.79671 13.448 1.81359C13.4227 1.83046 13.3983 1.85015 13.3768 1.87171C13.3552 1.89328 13.3355 1.91718 13.3187 1.94296C13.3018 1.96828 13.2873 1.99546 13.2755 2.02406C13.2638 2.05218 13.2549 2.08171 13.2488 2.11171C13.2427 2.14171 13.2394 2.17265 13.2394 2.20312C13.2394 2.23359 13.2427 2.26453 13.2488 2.29453C13.2549 2.32453 13.2638 2.35406 13.2755 2.38265C13.2873 2.41078 13.3018 2.43796 13.3187 2.46328C13.3355 2.48906 13.3552 2.51296 13.3768 2.53453C13.3983 2.55609 13.4227 2.57578 13.448 2.59265C13.4738 2.60953 13.501 2.62406 13.5291 2.63578C13.5572 2.64749 13.5867 2.65687 13.6168 2.66249C13.6467 2.66859 13.6777 2.67187 13.7081 2.67187C13.7391 2.67187 13.7696 2.66859 13.8 2.66249C13.8301 2.65687 13.8596 2.64749 13.8877 2.63578C13.9158 2.62406 13.943 2.60953 13.9683 2.59265C13.9941 2.57578 14.018 2.55609 14.0396 2.53453C14.0616 2.51296 14.0808 2.48906 14.0982 2.46328C14.1151 2.43796 14.1296 2.41078 14.1413 2.38265C14.153 2.35406 14.1619 2.32453 14.168 2.29453C14.1741 2.26453 14.1769 2.23359 14.1769 2.20312C14.1769 2.17265 14.1741 2.14171 14.168 2.11171Z" fill="#060608" fill-opacity="0.5"/>
<path d="M9.20431 21.7055C9.19822 21.6755 9.18931 21.6459 9.17759 21.6178C9.16587 21.5892 9.15134 21.562 9.13447 21.5367C9.11759 21.5109 9.0979 21.487 9.07634 21.4655C9.05478 21.4439 9.0304 21.4242 9.00509 21.4073C8.97931 21.3905 8.95212 21.3759 8.924 21.3642C8.89587 21.3525 8.86634 21.3431 8.83634 21.337C8.77587 21.3253 8.71353 21.3253 8.65306 21.337C8.62306 21.3431 8.59353 21.3525 8.5654 21.3642C8.53728 21.3759 8.51009 21.3905 8.48478 21.4073C8.459 21.4242 8.43509 21.4439 8.41353 21.4655C8.3915 21.487 8.37228 21.5109 8.35493 21.5367C8.33806 21.562 8.32353 21.5892 8.31181 21.6178C8.30009 21.6459 8.29118 21.6755 8.28509 21.7055C8.279 21.7355 8.27618 21.7664 8.27618 21.7969C8.27618 21.8273 8.279 21.8583 8.28509 21.8883C8.29118 21.9183 8.30009 21.9478 8.31181 21.9759C8.32353 22.0045 8.33806 22.0317 8.35493 22.057C8.37228 22.0828 8.3915 22.1067 8.41353 22.1283C8.43509 22.1498 8.459 22.1695 8.48478 22.1864C8.51009 22.2033 8.53728 22.2178 8.5654 22.2295C8.59353 22.2413 8.62306 22.2506 8.65306 22.2562C8.68353 22.2623 8.71447 22.2656 8.74493 22.2656C8.86822 22.2656 8.98915 22.2155 9.07634 22.1283C9.16353 22.0411 9.21368 21.9202 9.21368 21.7969C9.21368 21.7664 9.2104 21.7355 9.20431 21.7055Z" fill="#060608" fill-opacity="0.5"/>
<path d="M13.0489 11.5312H11.6953V9.24661C11.6953 8.98772 11.4855 8.77786 11.2266 8.77786C10.9677 8.77786 10.7578 8.98772 10.7578 9.24661V12C10.7578 12.2589 10.9677 12.4687 11.2266 12.4687H13.0489C13.3077 12.4687 13.5176 12.2589 13.5176 12C13.5176 11.7411 13.3077 11.5312 13.0489 11.5312Z" fill="#060608" fill-opacity="0.5"/>
<path d="M20.2266 10.3983H18.9857C18.9003 9.98428 18.7826 9.58195 18.6353 9.19411L19.867 8.40834C19.9718 8.3415 20.0458 8.2357 20.0727 8.11434C20.0995 7.99294 20.077 7.86586 20.0101 7.76105L19.0704 6.28791C19.0035 6.18309 18.8977 6.10912 18.7764 6.08231C18.6552 6.05541 18.528 6.07795 18.4231 6.1448L17.2683 6.88153C16.998 6.56287 16.7029 6.26583 16.3861 5.99334L15.8415 0.423141C15.8181 0.183047 15.6162 0 15.375 0H7.07812C6.83691 0 6.63506 0.183047 6.61158 0.423141L6.06703 5.99339C4.37677 7.44731 3.30469 9.6008 3.30469 12C3.30469 14.3992 4.37677 16.5527 6.06703 18.0066L6.61158 23.5769C6.63506 23.817 6.83691 24 7.07812 24H15.375C15.6162 24 15.8181 23.817 15.8415 23.5769L16.386 18.0066C17.8175 16.7753 18.8056 15.0422 19.0746 13.0831H20.2266C20.4854 13.0831 20.6953 12.8732 20.6953 12.6143V10.867C20.6953 10.6081 20.4854 10.3983 20.2266 10.3983ZM7.33373 2.67188H11.9739C12.2328 2.67188 12.4427 2.46202 12.4427 2.20312C12.4427 1.94423 12.2328 1.73438 11.9739 1.73438H7.42537L7.50328 0.9375H14.9498L15.3716 5.25136C14.165 4.50755 12.745 4.07812 11.2266 4.07812C9.70814 4.07812 8.28811 4.50755 7.08155 5.25131L7.33373 2.67188ZM15.1194 21.3281H10.4792C10.2203 21.3281 10.0104 21.538 10.0104 21.7969C10.0104 22.0558 10.2203 22.2656 10.4792 22.2656H15.0278L14.9498 23.0625H7.50328L7.08155 18.7487C8.28811 19.4925 9.70814 19.9219 11.2266 19.9219C12.745 19.9219 14.165 19.4925 15.3716 18.7486L15.1194 21.3281ZM11.2266 18.9844C7.37536 18.9844 4.24219 15.8512 4.24219 12C4.24219 8.1488 7.37536 5.01562 11.2266 5.01562C15.0778 5.01562 18.2109 8.1488 18.2109 12C18.2109 15.8512 15.0778 18.9844 11.2266 18.9844ZM17.8333 7.63308L18.5321 7.1873L18.9677 7.87003L18.2461 8.33034C18.1202 8.09044 17.9823 7.85775 17.8333 7.63308ZM19.7578 12.1456H19.1471C19.148 12.0972 19.1484 12.0486 19.1484 12C19.1484 11.7764 19.1391 11.5548 19.1208 11.3358H19.7578V12.1456Z" fill="#060608" fill-opacity="0.5"/>
<path d="M11.2265 6.01994C7.92911 6.01994 5.24646 8.70259 5.24646 12C5.24646 15.2974 7.92911 17.9801 11.2265 17.9801C14.5239 17.9801 17.2066 15.2974 17.2066 12C17.2066 8.70259 14.5239 6.01994 11.2265 6.01994ZM11.6953 17.021V16.7325C11.6953 16.4736 11.4854 16.2637 11.2265 16.2637C10.9676 16.2637 10.7578 16.4736 10.7578 16.7325V17.021C8.35057 16.7981 6.42851 14.876 6.20557 12.4688H6.49408C6.75297 12.4688 6.96283 12.2589 6.96283 12C6.96283 11.7411 6.75297 11.5313 6.49408 11.5313H6.20557C6.42851 9.12404 8.35057 7.20198 10.7578 6.97904V7.26756C10.7578 7.52645 10.9676 7.73631 11.2265 7.73631C11.4854 7.73631 11.6953 7.52645 11.6953 7.26756V6.97904C14.1025 7.20193 16.0246 9.12404 16.2475 11.5313H15.959C15.7001 11.5313 15.4902 11.7411 15.4902 12C15.4902 12.2589 15.7001 12.4688 15.959 12.4688H16.2475C16.0246 14.876 14.1025 16.798 11.6953 17.021Z" fill="#060608" fill-opacity="0.5"/>
</svg>
